<svg fill="none" xmlns="http://www.w3.org/2000/svg" viewBox="0 0 210 227"><circle cx="105" cy="110" r="105" fill="#AB8FF5"/><path fill-rule="evenodd" clip-rule="evenodd" d="M183.232 70.2387c1.174 28.282 16.136 45.2303 17.533 71.6253 1.798 33.949-17.67 30.361-16.195 58.22.765 14.438-127.8541 49.291-164.1021 3.892-23.26003-29.132-.189-32.764-2.281-72.288-2.072-39.1253 26.095-44.9983 25.003-65.6253-1.453-27.449 20.598-64.022 56.597-65.935 43.8461-2.329 81.6701 27.365 83.4451 70.111z" fill="#F58FA6"/><path fill-rule="evenodd" clip-rule="evenodd" d="M117.685 136.644s-12.892 1.067-18.5561-1.648l18.3211 10.191.235-8.543z" fill="#CF3E83"/><path d="M88.1522 112.53c4.4 6.263 3.191 14.886 1.144 19.996-.69 1.755-5.004 16.393-5.71 17.083-2.744 2.676 33.2958 16.162 33.2958 16.162l.803-29.127c10.243.048 22.2-1.127 28.55-5.854 18.916-14.081 17.678-59.3633 17.237-61.6083l-17.421-17.524s-25.406-10.136-28.922-5.07c-6.431 9.278-20.4708 50.013-32.4078 46.082 0 0 .818-12.476-9.53-11.912-7.71.42-9.47 6.716-9.275 10.288.657 12.0593 16.327 13.0463 22.236 21.4843" fill="#DFD8D9"/><path fill-rule="evenodd" clip-rule="evenodd" d="M143.434 91.2856l8.34 17.5234-8.582.283.242-17.8064z" fill="#AB8FF5"/><path fill-rule="evenodd" clip-rule="evenodd" d="M135.608 92.4799c.006 3.589-1.951 6.489-4.371 6.478-2.42-.011-4.386-2.93-4.392-6.518-.006-3.589 1.951-6.489 4.371-6.478 2.42.011 4.386 2.93 4.392 6.518M158.232 90.7065c.006 3.589-1.951 6.489-4.371 6.478-2.42-.011-4.386-2.93-4.392-6.518-.006-3.589 1.951-6.489 4.371-6.478 2.42.011 4.386 2.93 4.392 6.518" fill="#272022"/><path fill-rule="evenodd" clip-rule="evenodd" d="M149.193 22.0543c.852-.9536 1.756-1.8629 2.707-2.7237 2.134 1.831 4.157 3.785 6.047 5.863 10.167 11.159 16.666 25.662 17.544 41.777.023.408.044.806.057 1.214h.01l.712 13.057c-.506.008-1.003-.004-1.51-.025-9.901-.444-18.854-4.804-25.17-11.616-2.342-2.53-4.325-5.401-5.866-8.531-.243-.464-.458-.949-.673-1.414-1.073-2.4764-1.872-5.0999-2.358-7.8331-33.842 47.7956-55.9714 40.8474-55.9714 40.8474l3.208-24.999-24.661-26.525s70.3284-30.3863 85.9244-19.0916z" fill="#F58FA6"/><path d="M141.543 117.784s-5.49 2.099-11.418-3.828" stroke="#272022" stroke-width="3"/><path opacity=".396996" fill-rule="evenodd" clip-rule="evenodd" d="M117.664 136.645s-12.892 1.066-18.5561-1.648l18.3211 10.191.235-8.543z" fill="#000"/></svg>