<svg fill="none" xmlns="http://www.w3.org/2000/svg" viewBox="0 0 353 297"><path d="M192.189 160.535l16.787-35.581M173.556 104.698l35.42 20.256M173.968 105.135H159.52" stroke="#EEBEC9" stroke-width="4.38738"/><path fill-rule="evenodd" clip-rule="evenodd" d="M202.99 163.771h-31.501c0-2.866 2.323-5.188 5.188-5.188h21.125c2.865 0 5.188 2.322 5.188 5.188M146.247 116.999c0-7.33 5.943-13.272 13.273-13.272 7.331 0 13.273 5.942 13.273 13.272" fill="#EFD2D8"/><path fill-rule="evenodd" clip-rule="evenodd" d="M239.506 294.338h-2.975l-18.28-121.79h10.287l10.968 121.79zM187.426 294.338h-2.975l-18.281-121.79h10.287l10.969 121.79z" fill="#F0A8B8"/><path fill-rule="evenodd" clip-rule="evenodd" d="M114.453 126.485H69.9789l10.4354 34.403h44.4737l-10.435-34.403z" fill="#EFD2D8"/><path fill-rule="evenodd" clip-rule="evenodd" d="M73.1096 128.698l8.9086 29.375h39.7988l-8.909-29.375H73.1096z" fill="#fff"/><path fill-rule="evenodd" clip-rule="evenodd" d="M80.3734 137.739l.4245 1.404h32.6681l-.424-1.404H80.3734zM82.4574 140.6l.4245 1.404h31.5991l-.424-1.404H82.4574zM92.357 143.461l.4241 1.405h22.6869l-.424-1.405H92.357z" fill="#F0A8B8"/><path fill-rule="evenodd" clip-rule="evenodd" d="M157.407 163.717h-44.473v-2.829h44.473v2.829z" fill="#EFD2D8"/><path fill-rule="evenodd" clip-rule="evenodd" d="M112.934 163.717H80.4302v-2.829h32.5038v2.829zM70.0157 126.485h-2.733l10.435 34.403h2.733l-10.435-34.403z" fill="#F2E3E7"/><path fill-rule="evenodd" clip-rule="evenodd" d="M251.53 172.548H83.5296v-8.831H251.53v8.831z" fill="#F0A8B8"/><path fill-rule="evenodd" clip-rule="evenodd" d="M95.6792 172.548H30.1354v-8.831h65.5438v8.831zM38.4531 294.338h-2.975l10.9685-121.79h10.2873l-18.2808 121.79zM90.7349 294.338h-2.9751l10.9685-121.79h10.2877l-18.2811 121.79z" fill="#EFD2D8"/><path fill-rule="evenodd" clip-rule="evenodd" d="M78.742 132.189l.4241 1.405h32.6689l-.424-1.405H78.742zM83.0895 135.05l.4241 1.405h29.1044l-.425-1.405H83.0895zM89.8879 128.329l5.5585.673.4453-.699-.2932-.637.423-.508-5.1928-.673-.7843.468.6567.657-.8132.719z" fill="#F0A8B8"/><path fill-rule="evenodd" clip-rule="evenodd" d="M304.528 212.88l19.696 79.26h-4.601l-19.696-79.26h4.601z" fill="#EFD2D8"/><path d="M281.283 252.138l-10.896-38.453M289.809 213.685l-28.391 38.346" stroke="#EEBEC9" stroke-width="2.55931"/><path fill-rule="evenodd" clip-rule="evenodd" d="M289.809 213.685l40.714 37.918z" fill="#fff"/><path d="M289.809 213.685l40.714 37.918" stroke="#EEBEC9" stroke-width="2.55931"/><path fill-rule="evenodd" clip-rule="evenodd" d="M272.788 212.833l-19.412 79.307h-4.536l19.413-79.307h4.535z" fill="#EFD2D8"/><path d="M321.615 213.685l-40.332 37.918" stroke="#EEBEC9" stroke-width="2.55931"/><path fill-rule="evenodd" clip-rule="evenodd" d="M323.958 212.88l19.695 79.26h-4.601l-19.696-79.26h4.602zM292.186 212.88l-19.696 79.26h-4.602l19.696-79.26h4.602z" fill="#F2E3E7"/><path fill-rule="evenodd" clip-rule="evenodd" d="M245.919 204.047v.607c0 5.064 4.106 9.166 9.166 9.166h71.796c11.074 0 19.597-10.168 18.069-21.56l-8.106-63.478c-.702-5.258-5.027-9.17-10.138-9.17h-21.279c-5.108 0-9.433 3.912-10.139 9.17l-8.105 63.478c-.063.453-.107.906-.132 1.356l-.044-.007s-1.499 10.438-15.436 10.438h-25.652z" fill="#F2E3E7"/><path fill-rule="evenodd" clip-rule="evenodd" d="M278.867 93.3747c-.43 10.3403-5.9 16.5363-6.411 26.1873-.657 12.412 6.461 11.1 5.921 21.286-.279 5.279 46.746 18.022 59.999 1.423 8.504-10.651.069-11.979.833-26.43.758-14.304-9.54-16.4516-9.141-23.9931.531-10.0358-7.531-23.4074-20.693-24.1069-16.03-.8515-29.86 10.0051-30.508 25.6337z" fill="#F58FA6"/><path fill-rule="evenodd" clip-rule="evenodd" d="M302.831 117.653s4.714.391 6.785-.602l-6.699 3.726-.086-3.124z" fill="#CF3E83"/><path d="M313.629 108.837c-1.609 2.29-1.167 5.442-.418 7.311.252.641 1.829 5.993 2.088 6.246 1.003.978-12.174 5.909-12.174 5.909l-.294-10.65c-3.745.018-8.116-.412-10.438-2.14-6.916-5.148-6.463-21.704-6.302-22.5248l6.369-6.407s9.289-3.7059 10.575-1.8537c2.351 3.3922 7.484 18.2855 11.849 16.8485 0 0-.299-4.5616 3.484-4.3554 2.819.1535 3.462 2.4555 3.391 3.7614-.24 4.409-5.969 4.77-8.13 7.855" fill="#DFD8D9"/><path fill-rule="evenodd" clip-rule="evenodd" d="M293.417 101.07l-3.049 6.406 3.137.104-.088-6.51z" fill="#AB8FF5"/><path fill-rule="evenodd" clip-rule="evenodd" d="M296.279 101.506c-.003 1.313.713 2.373 1.598 2.369.884-.004 1.603-1.071 1.605-2.383.003-1.312-.713-2.3727-1.598-2.3687-.884.004-1.603 1.0717-1.605 2.3827M288.007 100.858c-.003 1.312.713 2.372 1.598 2.368.884-.004 1.603-1.071 1.605-2.383.003-1.3118-.713-2.3721-1.598-2.3681-.884.004-1.603 1.0713-1.605 2.3831" fill="#272022"/><path fill-rule="evenodd" clip-rule="evenodd" d="M291.312 75.7577c-.312-.3486-.642-.6811-.99-.9958-.78.6694-1.52 1.3839-2.211 2.1436-3.717 4.0799-6.093 9.3824-6.414 15.2743-.008.1492-.016.2947-.021.4439h-.004l-.26 4.7738c.185.0029.367-.0015.552-.0091 3.62-.1624 6.894-1.7564 9.203-4.247.856-.925 1.581-1.9747 2.144-3.1191.089-.1696.168-.347.246-.517.393-.9054.685-1.8646.863-2.8639 12.373 17.4746 20.464 14.9346 20.464 14.9346l-1.173-9.1401 9.016-9.698s-25.713-11.1097-31.415-6.9802z" fill="#F58FA6"/><path d="M294.109 110.758s2.007.767 4.174-1.4" stroke="#272022" stroke-width="1.09685"/><path opacity=".396996" fill-rule="evenodd" clip-rule="evenodd" d="M302.839 117.654s4.714.39 6.785-.603l-6.699 3.726-.086-3.123z" fill="#000"/><path fill-rule="evenodd" clip-rule="evenodd" d="M225.188 246.127l3.77-7.42 9.072 1.367-12.34 20.228-27.066-17.963c9.316-2.078 26.564 3.788 26.564 3.788zm42.386 39.102l-.944-8.237 8.291-3.848 1.225 23.59-32.729-.057c6.6-6.845 24.157-11.448 24.157-11.448z" fill="#F58FA6"/><path fill-rule="evenodd" clip-rule="evenodd" d="M228.004 239.76l9.194 1.92-5.294 8.493-7.623-4.647 3.723-5.766zm38.618 38.913l8.696-3.456.267 9.967-8.889.327-.074-6.838z" fill="#DFD8D9"/><path d="M253.479 231.892l4.501 48.855h20.847l-.925-70.934 39.792.274c11.351 0 22.331-9.749 21.543-21.079L338 177.473l-60.768-17.953c-11.249-2.543-15.15.817-22.443 13.8l-32.202 66.008 17.69 11.821 13.202-19.257z" fill="#8C7378"/><path opacity=".150484" fill-rule="evenodd" clip-rule="evenodd" d="M272.156 181.673l45.538 28.414-39.792-.274.925 70.934H257.98l-7.147-77.578c-1.763-14.115 7.071-21.496 21.323-21.496" fill="#18181C"/><path fill-rule="evenodd" clip-rule="evenodd" d="M322.458 179.094l2.527-.037s-.004-.04-.007-.124c-.87.062-1.712.113-2.52.161" fill="#C83820"/><path d="M270.98 206.471l8.34 1.046 13.432-21.009.49-6.983 20.464-.303 8.734-.128h.018c.808-.048 1.65-.099 2.52-.161 11.001-.768 26.243-2.907 27.289-8.83 1.898-10.727-12.456-31.545-14.153-33.958-.106-.15-.16-.23-.16-.23-2.406-3.437-4.827-6.11-7.086-7.532-4.395-2.768-8.516-3.375-12.431-3.364l-1.049-7.601-15.974 2.205.87 6.318c-4.691.45-7.883 1.367-10.87 4.109-9.59 8.804-10.296 41.779-10.296 41.779l-10.138 34.642z" fill="#AB8FF5"/><path fill-rule="evenodd" clip-rule="evenodd" d="M313.706 179.222v.146s3.664.007 8.735-.274l-8.735.128z" fill="#C83820"/><path opacity=".201149" d="M293.536 179.441c-1.173-14.897-9.291-18.046-3.441-34.752" stroke="#000" stroke-width="1.09685"/><path fill-rule="evenodd" clip-rule="evenodd" d="M279.725 197.869l30.506-3.516c.999-.115 1.657-1.097 1.383-2.065l-12.054-42.586c-.218-.77-.961-1.268-1.756-1.176l-30.506 3.516c-.999.115-1.657 1.097-1.383 2.065l12.053 42.586c.218.77.962 1.268 1.757 1.176" fill="#272022"/><path d="M306.813 181.955c-.058.015-.116.031-.176.048-2.119.578-4.285.928-7.298.531-1.939-.253-3.605-.584-3.586-.894.053-.781.994-.956.994-.956l1.81.087 1.741-.103s-7.999-1.513-7.999-1.747c.025-.825 1.338-1.16 1.338-1.16s-2.751-.438-2.719-.875c.075-1.113 1.303-1.197 1.303-1.197s-.341-.294-.307-.566c.135-1.097 2.092-1.279 3.023-1.413 0 0 3.17-.043 4.114-.278 2.483-.62 3.96-1.174 4.887-1.636l-6.194-21.885c-.218-.769-.962-1.267-1.757-1.176l-30.506 3.517c-.999.114-1.657 1.097-1.382 2.064l12.053 42.586c.218.77.961 1.268 1.756 1.176l30.506-3.516c.999-.115 1.657-1.097 1.383-2.065l-2.984-10.542z" fill="#D9F58F"/><path fill-rule="evenodd" clip-rule="evenodd" d="M292.299 178.921c.025-.825 1.338-1.16 1.338-1.16s-2.751-.438-2.719-.875c.075-1.113 1.303-1.197 1.303-1.197s-.341-.294-.306-.566c.124-1.016 1.812-1.247 2.8-1.382.079-.011.154-.021.222-.031 0 0 3.17-.043 4.114-.278 4.708-1.176 5.802-2.113 6.38-2.641.017-.016.034-.032.051-.047.048-.044.092-.085.137-.122-.033-.035-.07-.094-.108-.155-.055-.087-.112-.178-.165-.217l-.805-2.948c.589.064 1.165.084 1.735.104.801.027 1.591.055 2.393.202 2.185.404 3.479.91 3.479.91l2.788.954 2.022 7.483c-.765.681-2.6 2.025-3.844 2.703-2.403 1.309-3.461 1.575-5.085 1.984-.273.069-.562.141-.876.223-.036.01-.071.019-.108.029-.132.034-.268.07-.407.109-2.12.578-4.286.928-7.299.531-1.938-.253-3.604-.584-3.586-.894.054-.781.994-.956.994-.956l1.81.087 1.741-.103s-7.999-1.513-7.999-1.747zm-25.766 33.298c.34-.669 2.675-3.473 4.592-5.73l7.983 1.001c.914 5.391-2.884 13.096-2.884 13.096s1.976-1.205 2.369-.151c.175.469.571 4.216-6.829 4.468-.786.027-2.676-1.571-2.676-1.571s1.378 2.631-.732 3.148c0 0-3.401-5.096-3.452-6.229-.052-1.134 1.039-6.873 1.629-8.032z" fill="#DFD8D9"/><path opacity=".148065" d="M274.713 210.303s-1.038 3.923-4.602 5.145c-1.246.427-.935 5.473-3.989 4.87" stroke="#000" stroke-width="1.09685"/><path fill-rule="evenodd" clip-rule="evenodd" d="M294.644 152.702c.241.755.753 1.266 1.145 1.141.393-.125.516-.838.276-1.593s-.753-1.265-1.145-1.141c-.393.125-.516.838-.276 1.593" fill="#020101"/><path opacity=".200498" d="M325.373 147.642l7.7 12.75-19.144 7.575" stroke="#000" stroke-width="1.09685"/><path fill-rule="evenodd" clip-rule="evenodd" d="M117.314 72.7238H69.4211V1.70081h47.8929V72.7238z" fill="#EFD2D8"/><path clip-rule="evenodd" d="M117.314 72.7238H69.4211V1.70081h47.8929V72.7238z" stroke="#EFD2D8" stroke-width="3.29054"/><path fill-rule="evenodd" clip-rule="evenodd" d="M161.771 72.7238H72.0133V1.70081h89.7577V72.7238z" fill="#fff"/><path clip-rule="evenodd" d="M161.771 72.7238H72.0133V1.70081h89.7577V72.7238z" stroke="#EFD2D8" stroke-width="3.29054"/><path fill-rule="evenodd" clip-rule="evenodd" d="M153.509 64.9972H80.2747V9.42737h73.2343V64.9972z" fill="#fff"/><path clip-rule="evenodd" d="M153.509 64.9972H80.2747V9.42737h73.2343V64.9972z" stroke="#EFD2D8" stroke-width="3.29054"/><path fill-rule="evenodd" clip-rule="evenodd" d="M134.983 51.5729H98.4292V22.8513h36.5538v28.7216z" fill="#F0A8B8"/><path fill-rule="evenodd" clip-rule="evenodd" d="M23.8043 153.736c0 11.173 6.7932 20.231 15.1731 20.231s15.173-9.058 15.173-20.231c0-11.173-6.7931-20.231-15.173-20.231s-15.1731 9.058-15.1731 20.231" fill="#EEBEC9"/><path d="M38.8641 259.994V154.765" stroke="#EFD2D8" stroke-width="3.29054"/><path fill-rule="evenodd" clip-rule="evenodd" d="M55.2047 183.454c-7.165 7.166-8.6172 17.33-3.2434 22.704 5.3739 5.374 15.5387 3.922 22.704-3.243 7.165-7.165 8.6168-17.33 3.2434-22.704-5.3742-5.374-15.5387-3.922-22.704 3.243M4.04387 198.176c-5.77782 5.777-4.216644 16.706 3.48723 24.41 7.7035 7.704 18.6325 9.265 24.4103 3.487" fill="#EEBEC9"/><path d="M11.8277 208.353l26.5869 26.663M19.5104 182.856l19.4295 19.201M59.1143 225.003l-20.2979 20.526M66.1113 192.146l-27.1334 27.457" stroke="#EFD2D8" stroke-width="3.29054"/><path fill-rule="evenodd" clip-rule="evenodd" d="M30.7277 296.134h16.2725c12.4985 0 22.7244-10.226 22.7244-22.725v-21.383H8.00328v21.383c0 12.499 10.22592 22.725 22.72442 22.725" fill="#F2E3E7"/><path d="M8.00328 263.911H69.7246M8.00328 275.832H69.7246" stroke="#EFD2D8" stroke-width="3.29054"/><path fill-rule="evenodd" clip-rule="evenodd" d="M202.025 47.1332c0 14.2886 11.583 25.8721 25.872 25.8721s25.872-11.5835 25.872-25.8721c0-14.2889-11.583-25.872-25.872-25.872s-25.872 11.5831-25.872 25.872" fill="#EEBEC9"/><path fill-rule="evenodd" clip-rule="evenodd" d="M207.098 47.1332c0 14.2886 11.584 25.8721 25.872 25.8721 14.289 0 25.872-11.5835 25.872-25.8721 0-14.2889-11.583-25.872-25.872-25.872-14.288 0-25.872 11.5831-25.872 25.872" fill="#EFD2D8"/><path fill-rule="evenodd" clip-rule="evenodd" d="M213.365 47.1313c0 10.099 7.633 18.4123 17.44 19.4898.712.0786 1.432.1177 2.163.1177 10.83 0 19.608-8.7773 19.608-19.6075 0-10.8263-8.778-19.604-19.608-19.604-.731 0-1.451.0395-2.163.1181-9.807 1.0775-17.44 9.3909-17.44 19.4859" fill="#EEBEC9"/><path fill-rule="evenodd" clip-rule="evenodd" d="M213.364 47.1313c0 10.099 7.633 18.4124 17.441 19.4899 9.812-1.0775 17.445-9.3909 17.445-19.4899 0-10.095-7.633-18.4084-17.445-19.4858-9.808 1.0774-17.441 9.3908-17.441 19.4858" fill="#F2E3E7"/><path d="M232.12 36.2305l-6.353 13.855M225.162 44.277l13.916 15.1255" stroke="#EEBEC9" stroke-width="2.92492"/></svg>